HIERARCHY
ROOT Hips
{
	OFFSET 0.000000 93.385445 0.000000
	CHANNELS 6 Xposition Yposition Zposition Xrotation Yrotation Zrotation
	JOINT RightUpLeg
	{
		OFFSET -8.267204 -0.002556 0.000284
		CHANNELS 6 Xposition Yposition Zposition Xrotation Yrotation Zrotation
		JOINT RightLeg
		{
			OFFSET 0.000000 -42.978920 0.000356
			CHANNELS 6 Xposition Yposition Zposition Xrotation Yrotation Zrotation
			JOINT RightFoot
			{
				OFFSET 0.000000 -41.964985 0.000601
				CHANNELS 6 Xposition Yposition Zposition Xrotation Yrotation Zrotation
				JOINT RightToeBase
				{
					OFFSET 0.000000 -6.852513 15.501974
					CHANNELS 6 Xposition Yposition Zposition Xrotation Yrotation Zrotation
					End Site
					{
						OFFSET 0.000000 0.000000 16.948986
					}
				}
			}
		}
	}
	JOINT LeftUpLeg
	{
		OFFSET 8.267204 -0.004822 0.000536
		CHANNELS 6 Xposition Yposition Zposition Xrotation Yrotation Zrotation
		JOINT LeftLeg
		{
			OFFSET 0.000000 -42.978920 0.000356
			CHANNELS 6 Xposition Yposition Zposition Xrotation Yrotation Zrotation
			JOINT LeftFoot
			{
				OFFSET 0.000000 -41.964985 0.000601
				CHANNELS 6 Xposition Yposition Zposition Xrotation Yrotation Zrotation
				JOINT LeftToeBase
				{
					OFFSET 0.000000 -6.852513 15.501974
					CHANNELS 6 Xposition Yposition Zposition Xrotation Yrotation Zrotation
					End Site
					{
						OFFSET 0.000000 0.000000 16.948986
					}
				}
			}
		}
	}
	JOINT Spine
	{
		OFFSET 0.000000 10.062492 -1.118055
		CHANNELS 6 Xposition Yposition Zposition Xrotation Yrotation Zrotation
		JOINT Spine1
		{
			OFFSET 0.000000 11.181747 0.000000
			CHANNELS 3 Xrotation Yrotation Zrotation
			JOINT Spine2
			{
				OFFSET 0.000000 10.208565 0.001507
				CHANNELS 6 Xposition Yposition Zposition Xrotation Yrotation Zrotation
				JOINT Spine3
				{
					OFFSET 0.000000 10.197166 0.001508
					CHANNELS 6 Xposition Yposition Zposition Xrotation Yrotation Zrotation
					JOINT LeftShoulder
					{
						OFFSET 3.104119 8.005707 0.000000
						CHANNELS 6 Xposition Yposition Zposition Xrotation Yrotation Zrotation
						JOINT LeftArm
						{
							OFFSET 14.462845 0.000000 0.000000
							CHANNELS 3 Xrotation Yrotation Zrotation
							JOINT LeftForeArm
							{
								OFFSET 30.948917 0.000000 0.000000
								CHANNELS 3 Xrotation Yrotation Zrotation
								JOINT LeftHand
								{
									OFFSET 25.302570 0.000000 0.000000
									CHANNELS 3 Xrotation Yrotation Zrotation
									End Site
									{
										OFFSET 25.302567 0.000000 0.000000
									}
								}
							}
						}
					}
					JOINT RightShoulder
					{
						OFFSET -3.104119 8.005707 0.000000
						CHANNELS 6 Xposition Yposition Zposition Xrotation Yrotation Zrotation
						JOINT RightArm
						{
							OFFSET -14.462845 0.000000 0.000000
							CHANNELS 3 Xrotation Yrotation Zrotation
							JOINT RightForeArm
							{
								OFFSET -30.948917 0.000000 0.000000
								CHANNELS 3 Xrotation Yrotation Zrotation
								JOINT RightHand
								{
									OFFSET -25.302570 0.000000 0.000000
									CHANNELS 3 Xrotation Yrotation Zrotation
									End Site
									{
										OFFSET -25.302567 0.000000 0.000000
									}
								}
							}
						}
					}
					JOINT Neck
					{
						OFFSET 0.000000 14.283447 0.000000
						CHANNELS 6 Xposition Yposition Zposition Xrotation Yrotation Zrotation
						JOINT Head
						{
							OFFSET 0.000000 9.493164 -0.003241
							CHANNELS 6 Xposition Yposition Zposition Xrotation Yrotation Zrotation
							End Site
							{
								OFFSET 0.000000 9.493164 0.000000
							}
						}
					}
				}
			}
		}
	}
}
MOTION
Frames: 7
Frame Time: 0.016667
-317.351715 75.089027 88.590843 79.797974 103.955527 -79.769677 -8.267203 -0.002536 0.000243 -41.836001 3.032721 -3.910351 0.000002 -42.978970 0.000353 54.638324 0.045673 -0.146897 -0.000011 -41.964985 0.000629 3.360667 12.212172 7.900366 -0.000007 -6.852513 15.502030 -3.286593 0.096362 -3.357913 8.267199 -0.004805 0.000528 -41.732586 -4.267144 4.848566 0.000011 -42.978905 0.000365 55.585077 0.108707 -0.281023 -0.000006 -41.964993 0.000583 2.825152 -5.622948 -7.158982 0.000013 -6.852512 15.501957 -3.208462 -0.048413 1.728499 0.000002 10.062509 -1.118082 9.566033 0.325908 -0.233073 -1.574968 0.158692 -0.081161 -0.000008 10.208572 0.001536 4.245463 0.158701 -0.081145 0.000011 10.197161 0.001508 9.020768 0.112906 -0.071602 3.104119 8.005722 0.000028 -4.145173 2.926863 -7.345766 12.352365 4.541835 -37.972010 98.762036 -115.136267 32.682107 2.485666 -7.578877 1.588888 -3.104119 8.005716 0.000030 -1.914701 3.383724 4.284070 14.573136 -7.467613 42.421909 85.952699 115.777854 -24.511269 8.529230 11.263551 -5.165208 -0.000003 14.283468 0.000017 13.190718 -4.817250 0.257259 0.000004 9.493175 -0.003250 -11.663691 -8.839843 -1.461825 
-317.349213 75.088593 88.591423 79.678036 103.925324 -79.660940 -8.267192 -0.002553 0.000279 -41.868629 3.019845 -3.909964 0.000001 -42.978924 0.000366 54.643159 0.041863 -0.152359 -0.000001 -41.964989 0.000660 3.357776 12.204220 7.900787 -0.000002 -6.852516 15.501975 -3.292303 0.096369 -3.351309 8.267213 -0.004821 0.000545 -41.772245 -4.281141 4.843863 -0.000003 -42.978912 0.000336 55.589106 0.105268 -0.280026 0.000006 -41.964985 0.000583 2.829322 -5.633091 -7.158972 -0.000007 -6.852513 15.501949 -3.213373 -0.048602 1.732591 0.000015 10.062495 -1.118066 9.550239 0.330126 -0.230891 -1.581988 0.160399 -0.079936 0.000009 10.208581 0.001465 4.238444 0.160407 -0.079920 0.000001 10.197166 0.001532 9.015506 0.114264 -0.070807 3.104106 8.005719 -0.000010 -4.178922 2.961276 -7.342552 12.429732 4.419005 -37.964616 98.836136 -115.173040 32.754319 2.522819 -7.636146 1.787222 -3.104132 8.005731 0.000008 -1.915641 3.393931 4.287819 14.553321 -7.415941 42.407600 85.925877 115.778605 -24.532043 8.536689 11.200179 -5.062867 -0.000022 14.283462 0.000005 13.198286 -4.807636 0.238723 -0.000007 9.493173 -0.003216 -11.650075 -8.815098 -1.491155 
-317.348389 75.088158 88.590019 79.558556 103.898946 -79.553057 -8.267200 -0.002545 0.000247 -41.897641 3.008455 -3.911018 0.000014 -42.978947 0.000372 54.646486 0.040066 -0.156110 0.000009 -41.964985 0.000596 3.355555 12.193128 7.901536 -0.000005 -6.852513 15.501976 -3.295084 0.096207 -3.343817 8.267212 -0.004810 0.000525 -41.808862 -4.294890 4.837404 0.000003 -42.978939 0.000351 55.592149 0.102343 -0.278534 -0.000006 -41.964985 0.000603 2.833742 -5.642037 -7.158025 0.000006 -6.852512 15.501966 -3.216730 -0.048770 1.736773 0.000008 10.062510 -1.118073 9.537897 0.332182 -0.225064 -1.587472 0.160916 -0.077247 0.000007 10.208582 0.001521 4.232960 0.160924 -0.077230 0.000015 10.197164 0.001500 9.011388 0.114835 -0.068835 3.104112 8.005706 -0.000057 -4.210522 2.999755 -7.340346 12.511029 4.303104 -37.966426 98.819013 -115.182726 32.760408 2.550402 -7.676704 1.940423 -3.104122 8.005720 -0.000067 -1.923788 3.408874 4.291471 14.535568 -7.376598 42.387614 85.847630 115.775559 -24.501396 8.545625 11.132149 -4.957613 -0.000003 14.283451 -0.000073 13.202376 -4.798081 0.221692 -0.000003 9.493188 -0.003240 -11.642857 -8.791027 -1.518002 
-317.348999 75.087959 88.584969 79.450625 103.880545 -79.455024 -8.267212 -0.002555 0.000295 -41.918872 2.999727 -3.918752 0.000007 -42.978931 0.000380 54.649068 0.044114 -0.152822 -0.000006 -41.964977 0.000597 3.355442 12.179263 7.898333 0.000003 -6.852512 15.501973 -3.298878 0.096060 -3.334958 8.267194 -0.004826 0.000554 -41.835923 -4.308272 4.826260 -0.000004 -42.978947 0.000348 55.593679 0.101666 -0.276997 0.000002 -41.964985 0.000583 2.831354 -5.645022 -7.155766 -0.000010 -6.852514 15.501949 -3.212518 -0.048794 1.739900 -0.000006 10.062492 -1.118040 9.535833 0.334308 -0.215120 -1.588384 0.161199 -0.072734 -0.000014 10.208571 0.001505 4.232046 0.161207 -0.072717 0.000013 10.197165 0.001479 9.010710 0.115359 -0.065484 3.104110 8.005715 -0.000008 -4.241217 3.050623 -7.326052 12.545983 4.236273 -37.998873 98.803194 -115.156156 32.744846 2.526303 -7.690621 1.953104 -3.104123 8.005703 -0.000013 -1.932189 3.444744 4.295900 14.495893 -7.400492 42.348129 85.726196 115.766693 -24.389337 8.530017 11.098712 -4.849638 -0.000005 14.283447 -0.000005 13.198798 -4.790595 0.204163 -0.000011 9.493176 -0.003218 -11.650074 -8.770428 -1.547107 
-317.351501 75.088074 88.579147 79.362201 103.864808 -79.375302 -8.267202 -0.002571 0.000333 -41.936163 2.993295 -3.924980 0.000006 -42.978901 0.000336 54.647664 0.048346 -0.150191 0.000014 -41.964985 0.000578 3.357246 12.165784 7.896011 -0.000003 -6.852512 15.501971 -3.301300 0.095890 -3.326582 8.267210 -0.004839 0.000577 -41.858712 -4.320048 4.816569 0.000007 -42.978973 0.000351 55.593205 0.103496 -0.277032 -0.000002 -41.964989 0.000605 2.828615 -5.647697 -7.153336 -0.000009 -6.852511 15.502001 -3.206328 -0.048790 1.743122 -0.000008 10.062482 -1.118045 9.541238 0.335559 -0.203858 -1.585975 0.161013 -0.067692 -0.000007 10.208565 0.001510 4.234456 0.161020 -0.067676 0.000004 10.197170 0.001517 9.012517 0.115570 -0.061706 3.104112 8.005702 -0.000033 -4.266264 3.097993 -7.312964 12.552844 4.207454 -38.031484 98.787382 -115.124751 32.712877 2.489635 -7.691377 1.922495 -3.104120 8.005710 -0.000034 -1.936460 3.478835 4.295959 14.456276 -7.421623 42.305365 85.613225 115.763838 -24.279651 8.516322 11.078562 -4.759297 -0.000008 14.283470 -0.000014 13.187698 -4.781981 0.189015 -0.000000 9.493162 -0.003253 -11.671128 -8.748636 -1.571915 
-317.356873 75.088623 88.575203 79.313318 103.847822 -79.333597 -8.267199 -0.002568 0.000298 -41.951015 2.989605 -3.920104 -0.000006 -42.978878 0.000342 54.636783 0.046841 -0.157290 -0.000008 -41.964981 0.000646 3.362093 12.156446 7.899847 -0.000003 -6.852513 15.502028 -3.301284 0.095741 -3.320732 8.267204 -0.004833 0.000536 -41.880036 -4.328548 4.815729 0.000007 -42.978931 0.000354 55.589626 0.110703 -0.281882 0.000000 -41.964993 0.000606 2.831182 -5.656712 -7.152096 0.000002 -6.852513 15.501978 -3.202508 -0.048867 1.747963 0.000004 10.062490 -1.118064 9.555933 0.335528 -0.193865 -1.579438 0.160349 -0.063286 -0.000004 10.208570 0.001446 4.240994 0.160355 -0.063270 -0.000003 10.197173 0.001506 9.017422 0.115379 -0.058367 3.104110 8.005708 0.000014 -4.278934 3.123333 -7.314111 12.517928 4.237457 -38.033574 98.809068 -115.119191 32.678466 2.463180 -7.694371 1.923946 -3.104121 8.005714 -0.000012 -1.923897 3.487877 4.283518 14.428684 -7.373241 42.271894 85.595644 115.784670 -24.281292 8.525754 11.067820 -4.710210 -0.000009 14.283443 0.000005 13.163390 -4.767844 0.178552 -0.000005 9.493192 -0.003216 -11.716228 -8.718548 -1.586819 
-317.362915 75.089577 88.572166 79.278634 103.829619 -79.304944 -8.267195 -0.002552 0.000341 -41.966246 2.987390 -3.913599 0.000000 -42.978897 0.000355 54.624107 0.044215 -0.164661 0.000017 -41.964985 0.000624 3.367470 12.149886 7.904235 -0.000008 -6.852511 15.501968 -3.298791 0.095521 -3.316349 8.267210 -0.004840 0.000595 -41.900854 -4.334972 4.817044 -0.000008 -42.978947 0.000375 55.584581 0.117212 -0.287129 -0.000010 -41.964981 0.000604 2.834419 -5.664326 -7.150977 -0.000001 -6.852513 15.501992 -3.198780 -0.048927 1.752160 0.000000 10.062481 -1.117988 9.572889 0.334827 -0.185318 -1.571894 0.159485 -0.059558 0.000005 10.208564 0.001506 4.248537 0.159491 -0.059542 0.000008 10.197160 0.001492 9.023080 0.114993 -0.055521 3.104121 8.005713 -0.000009 -4.286382 3.142884 -7.317253 12.486849 4.272914 -38.027280 98.844715 -115.132168 32.660397 2.454372 -7.684054 1.927750 -3.104108 8.005705 -0.000009 -1.912543 3.489709 4.268472 14.419170 -7.308565 42.245215 85.576417 115.808835 -24.288948 8.547935 11.053044 -4.692754 0.000007 14.283447 -0.000010 13.139085 -4.753743 0.172491 0.000001 9.493183 -0.003303 -11.761052 -8.690277 -1.593713 
